<svg xmlns="http://www.w3.org/2000/svg" shape-rendering="geometricPrecision" text-rendering="geometricPrecision" image-rendering="optimizeQuality" fill-rule="evenodd" clip-rule="evenodd" viewBox="0 0 512 474.48"><g fill-rule="nonzero"><path fill="#262626" d="M374.46 384.62a18.62 18.62 0 0 0-16.84 10.67h-29.74v-11.82l-16.7 8.85v11.28c0 2.3.93 4.38 2.44 5.89a8.292 8.292 0 0 0 5.88 2.44h38.38c4.4 8.49 14.61 12.34 23.59 8.71l.15-.05c6.98-2.9 11.54-9.71 11.54-17.27 0-2.51-.51-4.92-1.42-7.14-2.9-6.99-9.71-11.56-17.28-11.56zm47.69-31.68c0-7.26 4.19-13.76 10.67-16.85v-29.73h-4.99v-16.71h13.3c2.3 0 4.38.94 5.89 2.44a8.316 8.316 0 0 1 2.44 5.89v38.38c6.16 3.17 10.08 9.61 10.08 16.58 0 2.46-.49 4.83-1.37 7.01l-.05.14c-3.95 9.52-14.89 14.06-24.41 10.12a18.691 18.691 0 0 1-11.56-17.27zm54.39-88.29h-48.72v-16.66h48.72a18.687 18.687 0 0 1 34 1.19 18.72 18.72 0 0 1-4.05 20.36c-3.51 3.5-8.27 5.48-13.22 5.48-7.07 0-13.59-4.03-16.73-10.37zm15.83-45.6h-64.55l-.01-16.66h56.25v-54.43c-3.6-2.05-6.43-5.26-8.02-9.1a18.682 18.682 0 0 1 10.13-24.41c2.21-.92 4.62-1.43 7.14-1.43 7.56 0 14.39 4.58 17.28 11.56 3.51 8.48.31 18.35-7.61 23.13-.73.44-1.49.84-2.28 1.18v61.83c0 4.59-3.74 8.33-8.33 8.33zm-73.7-78.62v-2.91c-8.85-4.32-12.87-14.8-9.1-23.94 2.89-6.97 9.68-11.56 17.27-11.56 7.54 0 14.29 4.54 17.21 11.43l.07.14c3.73 9.02-.16 19.37-8.79 23.81v33.08c0 2.3-.94 4.38-2.45 5.89a8.299 8.299 0 0 1-5.07 2.41v-16.91h.09c0-8.09-3.47-15.89-9.23-21.44zm-282.6-52.01c4.24-1.76 7.72-5.1 9.67-9.24h29.75V95.6l16.7-8.85V70.87c0-2.3-.93-4.38-2.44-5.89a8.298 8.298 0 0 0-5.89-2.44h-38.37c-2.01-3.9-5.4-6.98-9.45-8.66-9.58-3.96-20.5.67-24.41 10.13-2.89 6.96-1.28 15.03 4.05 20.36 5.34 5.33 13.41 6.95 20.39 4.05zm81.12-52.96V73.5l16.66-8.83V35.46c6.32-3.14 10.36-9.6 10.36-16.73 0-7.52-4.52-14.36-11.55-17.27a18.737 18.737 0 0 0-14.28 0c-7 2.91-11.55 9.72-11.55 17.27 0 7.12 4.06 13.61 10.36 16.73zm45.6-15.83c0 6.91-1.14 21.9-1.85 37.65 3.47.57 6.84 1.74 9.91 3.52l8.6 4.56V27.94h54.43c.82 1.44 1.86 2.8 3.03 3.97 5.33 5.33 13.39 6.94 20.36 4.05 6.99-2.91 11.55-9.7 11.55-17.27 0-7.56-4.57-14.39-11.55-17.28-7-2.89-15.04-1.25-20.36 4.06a18.849 18.849 0 0 0-3.95 5.83h-61.83c-4.6 0-8.34 3.74-8.34 8.33zm69.44 73.7h12.08c.32.66.68 1.29 1.07 1.9 4.86 7.57 14.49 10.67 22.89 7.2 6.96-2.89 11.55-9.68 11.55-17.27 0-2.53-.51-4.96-1.43-7.18-2.89-6.94-9.77-11.52-17.29-11.52-7.05 0-13.47 3.99-16.66 10.21h-33.08c-2.3 0-4.38.94-5.89 2.45l-.02.02 26.78 14.19zm-243.8 20.25c.91 2.21 1.42 4.62 1.42 7.14 0 7.26-4.18 13.76-10.67 16.84v29.75h5v16.7H70.87c-2.3 0-4.38-.94-5.89-2.45a8.257 8.257 0 0 1-2.44-5.88V137.3c-6.15-3.17-10.08-9.61-10.08-16.58 0-10.17 8.24-18.7 18.69-18.7 7.57 0 14.38 4.57 17.28 11.56zm-52.96 95.43h48.72v16.66H35.47a18.73 18.73 0 0 1-9.58 8.94c-7.02 2.88-15.04 1.28-20.38-4.06-1.71-1.71-3.1-3.77-4.05-6.07a18.783 18.783 0 0 1 0-14.28c3.93-9.48 14.77-14.03 24.28-10.19l.14.06c3.47 1.44 6.4 3.86 8.46 7l.1.13c.37.58.71 1.18 1.03 1.81zm-15.84 45.6h64.56l.01 16.66H27.94v54.43c.48.27.95.57 1.39.87 5.04 3.54 8.06 9.19 8.06 15.37 0 2.52-.51 4.94-1.43 7.15-2.91 6.99-9.69 11.55-17.27 11.55-7.56 0-14.39-4.58-17.28-11.56-3.5-8.47-.31-18.36 7.61-23.13.73-.44 1.49-.83 2.28-1.18v-61.83c0-2.29.94-4.38 2.44-5.89a8.316 8.316 0 0 1 5.89-2.44zm73.7 79.43v2.09c8.73 4.27 12.92 14.69 9.1 23.95-2.89 6.97-9.67 11.56-17.27 11.56-2.53 0-4.96-.51-7.18-1.43-6.94-2.89-11.52-9.77-11.52-17.29 0-6.34 3.22-12.2 8.48-15.65.56-.37 1.14-.71 1.74-1.01v-33.08c0-2.3.93-4.38 2.44-5.89a8.286 8.286 0 0 1 5.08-2.4v17.72h-.09c0 8.09 3.46 15.89 9.22 21.43zm192.84 104.97v-33.44l-15.41 8.17a30 30 0 0 1-1.25.67v24.6c-4.03 2.01-7.2 5.39-8.94 9.58-.91 2.22-1.42 4.63-1.42 7.15 0 10.25 8.33 18.69 18.7 18.69 10.24 0 18.69-8.33 18.69-18.69 0-7.05-4-13.57-10.37-16.73zm-45.6 15.83v-41.47l-16.66-8.83v41.99h-54.42c-6.17-10.83-20.86-12.57-29.47-3.97a18.73 18.73 0 0 0-4.05 20.36c2.9 6.99 9.7 11.56 17.27 11.56 7.42 0 14.2-4.42 17.17-11.31h61.83c2.3 0 4.38-.94 5.89-2.44a8.298 8.298 0 0 0 2.44-5.89zm-60.81-73.7h-20.71c-3.12-6.39-9.63-10.52-16.81-10.52a18.69 18.69 0 0 0-17.27 11.56c-5.06 12.22 3.94 25.83 17.29 25.83 7.07 0 13.46-3.99 16.66-10.21h33.09c2.29 0 4.38-.94 5.88-2.45a8.21 8.21 0 0 0 2.1-3.49l-20.23-10.72z"/><path fill="#FED352" d="m270.86 60.8 141.39 74.95 1.58.91c8.61 5.36 14.07 15.06 14.07 25.21h-.09l.02 150.74h.09c0 11.09-6.34 21.3-16.18 26.37l.02.04-141 74.72c-9.02 5.19-20.61 5.15-29.61-.06L99.76 338.74l-1.58-.92c-8.61-5.35-14.07-15.05-14.07-25.21h.09l-.02-150.74h-.09c0-11.09 6.34-21.3 16.18-26.37l-.02-.04 141-74.71c9.02-5.2 20.61-5.16 29.61.05z"/><path fill="#E2AF2F" d="m262.52 74.83 142.63 75.6c2.02 1.17 3.61 2.81 4.7 4.7l.23.43c.99 1.88 1.52 3.96 1.52 6.03v151.3c.02 2.5-.72 4.87-1.98 6.87a13.022 13.022 0 0 1-5.16 4.68l-142.04 75.27c-2.03 1.17-4.29 1.71-6.52 1.7-2.28-.03-4.51-.64-6.41-1.76l-142.63-75.6a12.838 12.838 0 0 1-4.7-4.7l-.23-.43c-.99-1.88-1.52-3.96-1.52-6.03v-151.3c-.02-2.5.72-4.87 1.98-6.87 1.25-1.98 3.03-3.61 5.16-4.68l142.04-75.27c2.03-1.17 4.29-1.71 6.52-1.7 2.28.03 4.5.64 6.41 1.76z"/><path fill="#FFE07A" d="M262.97 81.35c44.61 24.34 90.5 47.63 135.53 71.33 5.08 2.68 7.97 7.86 7.98 13.23l.03 142.67c0 6.12-3.68 11.39-8.95 13.71l-134.59 70.84a14.949 14.949 0 0 1-13.93 0c-44.61-24.34-90.5-47.63-135.53-71.33-5.08-2.67-7.97-7.86-7.98-13.22l-.03-142.67c0-6.13 3.68-11.4 8.95-13.72l134.59-70.84c4.53-2.38 9.72-2.21 13.93 0z"/><path fill="#262626" d="M149.05 277.84v-82.27h24.53l24.82 34.06v-34.06h25.01v82.27h-24.66l-24.7-36.3v36.3h-25zm87.67 0v-82.27h57.19v20.9h-32.18v17.21h25.08v19.43h-25.08v24.73h-25.01zm67.04-59.89v-22.38h59.2v22.38h-15.39v59.89H320.1v-59.89h-16.34z"/></g></svg>